<svg xmlns="http://www.w3.org/2000/svg" xmlns:xlink="http://www.w3.org/1999/xlink" width="66" height="66" viewBox="0 0 66 66">
  <defs>
    <filter id="椭圆_31" x="0" y="0" width="66" height="66" filterUnits="userSpaceOnUse">
      <feOffset dy="3" input="SourceAlpha"/>
      <feGaussianBlur stdDeviation="3" result="blur"/>
      <feFlood flood-opacity="0.161"/>
      <feComposite operator="in" in2="blur"/>
      <feComposite in="SourceGraphic"/>
    </filter>
    <linearGradient id="linear-gradient" x1="0.5" x2="0.5" y2="1" gradientUnits="objectBoundingBox">
      <stop offset="0" stop-color="#e36638"/>
      <stop offset="1" stop-color="#e1b19f"/>
    </linearGradient>
  </defs>
  <g id="组_164" data-name="组 164" transform="translate(-41 -180)">
    <g transform="matrix(1, 0, 0, 1, 41, 180)" filter="url(#椭圆_31)">
      <circle id="椭圆_31-2" data-name="椭圆 31" cx="24" cy="24" r="24" transform="translate(9 6)" fill="#f5f6fa"/>
    </g>
    <path id="路径_126" data-name="路径 126" d="M100.344,22.4H81.6A5.106,5.106,0,0,0,76.5,27.505V52.666a2.685,2.685,0,0,0,.842,1.96,1.219,1.219,0,0,0,1.911-.313,2.244,2.244,0,0,1,4.07.252,1.225,1.225,0,0,0,2.3,0,2.246,2.246,0,0,1,4.189,0,1.225,1.225,0,0,0,2.3,0,2.245,2.245,0,0,1,4.188,0,1.225,1.225,0,0,0,2.3,0A2.254,2.254,0,0,1,100.7,53.13h.023a2.243,2.243,0,0,1,1.976,1.183,1.223,1.223,0,0,0,1.911.313,2.7,2.7,0,0,0,.842-1.96V27.505A5.105,5.105,0,0,0,100.344,22.4ZM96.978,39.525a1.2,1.2,0,1,1,0,2.4h-4.8v3.6a1.2,1.2,0,1,1-2.4,0v-3.6h-4.8a1.2,1.2,0,0,1,0-2.4h4.8v-2.4h-4.8a1.2,1.2,0,0,1,0-2.4H89.2L85.316,30.84a1.255,1.255,0,0,1,1.775-1.775l3.882,3.881,3.882-3.882a1.255,1.255,0,0,1,1.775,1.775l-3.882,3.882h4.229a1.2,1.2,0,1,1,0,2.4h-4.8v2.4Z" transform="translate(-16.933 171.557)" fill="url(#linear-gradient)"/>
  </g>
</svg>
